<?xml version="1.0" standalone="no"?><!DOCTYPE svg PUBLIC "-//W3C//DTD SVG 1.1//EN" "http://www.w3.org/Graphics/SVG/1.1/DTD/svg11.dtd"><svg t="1578472936498" class="icon" viewBox="0 0 1024 1024" version="1.1" xmlns="http://www.w3.org/2000/svg" p-id="2390" xmlns:xlink="http://www.w3.org/1999/xlink" width="200" height="200"><defs><style type="text/css"></style></defs><path d="M671.9488 432.0256V224.0512c0-17.7152-14.336-31.9488-31.9488-31.9488H64c-17.7152 0-31.9488 14.336-31.9488 31.9488v576c0 17.7152 14.336 31.9488 31.9488 31.9488H640c17.7152 0 31.9488-14.336 31.9488-31.9488V591.9744l320 143.9744V287.9488L671.9488 432.0256z" fill="#F0EEE2" p-id="2391"></path><path d="M64 736.0512v64H640v-64H64zM512 399.9744c26.5216 0 48.0256-21.504 48.0256-48.0256s-21.504-48.0256-48.0256-48.0256-48.0256 21.504-48.0256 48.0256 21.504 48.0256 48.0256 48.0256z" fill="#BBAA9C" p-id="2392"></path><path d="M176.0256 287.9488c0-8.8064-7.168-15.9744-15.9744-15.9744s-15.9744 7.168-15.9744 15.9744 7.168 15.9744 15.9744 15.9744c8.8064 0.1024 15.9744-7.0656 15.9744-15.9744z m799.9488 160.0512H896c-8.8064 0.2048-15.7696 7.5776-15.5648 16.384 0.2048 8.4992 7.0656 15.36 15.5648 15.5648h79.9744c8.8064-0.2048 15.7696-7.5776 15.5648-16.384-0.2048-8.4992-7.0656-15.36-15.5648-15.5648z m-783.9744-32.0512h48.0256c8.8064 0 15.9744-7.168 15.9744-15.9744s-7.168-15.9744-15.9744-15.9744h-48.0256c-8.8064 0-15.9744 7.168-15.9744 15.9744s7.168 15.9744 15.9744 15.9744zM128 527.9744H48.0256c-8.8064 0.2048-15.7696 7.5776-15.5648 16.384 0.2048 8.4992 7.0656 15.36 15.5648 15.5648H128c8.8064-0.2048 15.7696-7.5776 15.5648-16.384-0.2048-8.4992-7.0656-15.36-15.5648-15.5648z m207.9744 80.0768h-31.9488c-8.8064 0-15.9744 7.168-15.9744 15.9744s7.168 15.9744 15.9744 15.9744h31.9488c8.8064 0 15.9744-7.168 15.9744-15.9744s-7.0656-15.9744-15.9744-15.9744z m335.9744 143.9744h-64c-8.8064 0-15.9744 7.168-15.9744 15.9744s7.168 15.9744 15.9744 15.9744h64c8.8064 0 15.9744-7.168 15.9744-15.9744s-7.0656-15.9744-15.9744-15.9744z m128-224.0512h-15.9744c-8.8064 0.2048-15.7696 7.5776-15.5648 16.384 0.2048 8.4992 7.0656 15.36 15.5648 15.5648h15.9744c8.8064-0.2048 15.7696-7.5776 15.5648-16.384-0.1024-8.4992-6.9632-15.36-15.5648-15.5648zM256 752.0256h-79.9744c-8.8064 0-15.9744 7.168-15.9744 15.9744s7.168 15.9744 15.9744 15.9744H256c8.8064 0 15.9744-7.168 15.9744-15.9744s-7.168-15.9744-15.9744-15.9744zM560.0256 512h-31.9488c-8.8064 0.2048-15.7696 7.5776-15.5648 16.384 0.2048 8.4992 7.0656 15.36 15.5648 15.5648h31.9488c8.8064 0.2048 16.1792-6.7584 16.384-15.5648s-6.7584-16.1792-15.5648-16.384h-0.8192z" fill="#D8D5BA" p-id="2393"></path><path d="M512.1024 415.9488c35.328 0.1024 64.1024-28.5696 64.1024-63.8976s-28.5696-64.1024-63.8976-64.1024c-35.328-0.1024-64.1024 28.5696-64.1024 63.8976v0.1024c0 35.328 28.5696 64 63.8976 64z m-0.2048-95.9488c17.7152 0 31.9488 14.4384 31.9488 32.0512 0 17.7152-14.4384 31.9488-32.0512 31.9488-17.6128 0-31.9488-14.336-31.9488-31.9488 0-17.7152 14.4384-32.0512 32.0512-32.0512zM351.8464 384c17.7152 0 32.0512-14.2336 32.0512-31.9488 0-17.7152-14.2336-32.0512-31.9488-32.0512s-32.0512 14.2336-32.0512 31.9488v0.1024c0 17.6128 14.336 31.9488 31.9488 31.9488z m640.2048-128c-4.5056 0-9.0112 0.9216-13.2096 2.8672L704 382.464V224.0512c0-35.328-28.672-64-64-64H64C28.672 159.9488 0 188.6208 0 224.0512v576c0 35.328 28.672 64 64 64H640c35.328 0 64-28.672 64-64V641.536l274.8416 123.6992c16.0768 7.2704 35.0208 0.2048 42.2912-15.872 1.9456-4.1984 2.8672-8.704 2.8672-13.312V287.9488c0-17.6128-14.2336-31.9488-31.9488-31.9488zM640 799.9488H64v-64h575.7952v-31.9488H64V224.0512H640v575.8976z m320.1024-113.3568L704 571.2896V452.7104l256.1024-115.2v349.0816z" fill="#5F4E56" p-id="2394"></path></svg>